<svg xmlns="http://www.w3.org/2000/svg" width="1200" height="800" viewBox="0 0 1200 800" fill="none">
  <rect width="1200" height="800" fill="#0C1B2D"/>
  <rect x="48" y="48" width="1104" height="704" rx="44" fill="#102740"/>
  <path d="M0 520C150 470 280 470 420 520C560 570 700 580 860 540C1000 500 1120 470 1200 490V800H0V520Z" fill="#15616D"/>
  <path d="M120 430L260 300L410 350L570 230L730 300L920 180L1080 250" stroke="#F8F5F0" stroke-width="16" stroke-linecap="round" stroke-linejoin="round"/>
  <circle cx="260" cy="300" r="18" fill="#F2C14E"/>
  <circle cx="570" cy="230" r="18" fill="#F2C14E"/>
  <circle cx="920" cy="180" r="18" fill="#F2C14E"/>
  <rect x="170" y="160" width="220" height="120" rx="24" fill="#0A1724" stroke="#F8F5F0" stroke-opacity="0.24"/>
  <rect x="720" y="360" width="250" height="140" rx="24" fill="#0A1724" stroke="#F8F5F0" stroke-opacity="0.24"/>
  <path d="M510 610H760L700 650H560L510 610Z" fill="#F8F5F0" fill-opacity="0.85"/>
</svg>
